<svg width="30" height="30" viewBox="0 0 30 30" fill="none" xmlns="http://www.w3.org/2000/svg">
<path d="M3.8037 24.1099L3.96788 23.6205L3.66402 23.2032C1.98652 20.8995 1 18.0632 1 15C1 7.27954 7.27815 1 14.9963 1H15.0037C22.7218 1 29 7.28133 29 15C29 22.7187 22.7218 29 15.0037 29C12.1551 29 9.51697 28.1535 7.30414 26.6876L6.90426 26.4227L6.44738 26.5687L2.56221 27.8107L3.8037 24.1099Z" fill="#4CAF50" stroke="white" stroke-width="2"/>
<path d="M23.7315 21.1818C23.3697 22.2037 21.9334 23.0512 20.7878 23.2987C20.004 23.4656 18.9803 23.5987 15.534 22.17C11.1259 20.3437 8.28717 15.8643 8.06592 15.5737C7.85404 15.2831 6.28467 13.2018 6.28467 11.0493C6.28467 8.89685 7.37779 7.84872 7.81842 7.39872C8.18029 7.02935 8.77842 6.8606 9.35217 6.8606C9.53779 6.8606 9.70467 6.86997 9.85467 6.87747C10.2953 6.89622 10.5165 6.92247 10.8072 7.6181C11.169 8.48997 12.0503 10.6425 12.1553 10.8637C12.2622 11.085 12.369 11.385 12.219 11.6756C12.0784 11.9756 11.9547 12.1087 11.7334 12.3637C11.5122 12.6187 11.3022 12.8137 11.0809 13.0875C10.8784 13.3256 10.6497 13.5806 10.9047 14.0212C11.1597 14.4525 12.0409 15.8906 13.3384 17.0456C15.0128 18.5362 16.3703 19.0125 16.8559 19.215C17.2178 19.365 17.649 19.3293 17.9134 19.0481C18.249 18.6862 18.6634 18.0862 19.0853 17.4956C19.3853 17.0718 19.764 17.0193 20.1615 17.1693C20.5665 17.31 22.7097 18.3693 23.1503 18.5887C23.5909 18.81 23.8815 18.915 23.9884 19.1006C24.0934 19.2862 24.0934 20.1581 23.7315 21.1818Z" fill="#FAFAFA"/>
</svg>
